<svg xmlns="http://www.w3.org/2000/svg" width="132" height="116" viewBox="0 0 132 116">
    <g fill="#F15946" fill-rule="nonzero">
        <path d="M120.739 7.12h-6.985V2.225c0-1.23-.958-2.225-2.138-2.225-1.181 0-2.139.996-2.139 2.225V7.12H90.946V2.225C90.946.995 89.989 0 88.808 0S86.67.996 86.67 2.225V7.12H68.138V2.225C68.138.995 67.181 0 66 0c-1.18 0-2.138.996-2.138 2.225V7.12H45.33V2.225C45.33.995 44.373 0 43.192 0c-1.18 0-2.138.996-2.138 2.225V7.12H22.523V2.225C22.523.995 21.565 0 20.384 0c-1.18 0-2.138.996-2.138 2.225V7.12h-6.985C5.051 7.12 0 12.377 0 18.84v85.442C0 110.743 5.052 116 11.261 116H120.74c6.21 0 11.261-5.257 11.261-11.719V18.84c0-6.462-5.052-11.719-11.261-11.719zM11.26 11.57h6.985v4.895c0 1.23.958 2.226 2.138 2.226 1.181 0 2.139-.996 2.139-2.226V11.57h18.531v4.895c0 1.23.957 2.226 2.138 2.226s2.138-.996 2.138-2.226V11.57h18.532v4.895c0 1.23.957 2.226 2.138 2.226 1.18 0 2.138-.996 2.138-2.226V11.57H86.67v4.895c0 1.23.957 2.226 2.138 2.226 1.18 0 2.138-.996 2.138-2.226V11.57h18.531v4.895c0 1.23.958 2.226 2.139 2.226 1.18 0 2.138-.996 2.138-2.226V11.57h6.985c3.851 0 6.985 3.26 6.985 7.269v7.268H4.276V18.84c0-4.008 3.134-7.269 6.985-7.269zm109.478 99.98H11.26c-3.851 0-6.985-3.26-6.985-7.269V30.558h123.448v73.723c0 4.008-3.134 7.269-6.985 7.269z"/>
        <path d="M111.34 41H20.66C16.986 41 14 44.107 14 47.925v47.15c0 3.818 2.987 6.925 6.66 6.925h90.68c3.673 0 6.66-3.107 6.66-6.925v-47.15c0-3.818-2.987-6.925-6.66-6.925zM88.813 69.29H68.125v-9.725h20.687v9.725zm4.25-9.725h20.687v9.725H93.063v-9.725zm-24.937-4.42V45.42h20.687v9.725H68.125zm-4.25 0H43.188V45.42h20.687v9.725zm0 4.42v9.725H43.188v-9.725h20.687zM38.937 69.29H18.251v-9.725h20.686v9.725zm-20.686 4.42h20.686v9.725H18.251V73.71zm24.937 0h20.687v9.725H43.188V73.71zm20.687 14.145v9.725H43.188v-9.725h20.687zm4.25 0h20.687v9.725H68.125v-9.725zm0-4.42V73.71h20.687v9.725H68.125zm24.938-9.725h20.686v9.725H93.063V73.71zm20.686-25.785v7.22H93.063V45.42h18.278c1.328 0 2.408 1.124 2.408 2.505zM20.66 45.42h18.278v9.725H18.251v-7.22c0-1.381 1.08-2.505 2.408-2.505zm-2.408 49.655v-7.22h20.686v9.725H20.66c-1.328 0-2.408-1.124-2.408-2.505zm93.09 2.505H93.063v-9.725h20.686v7.22c0 1.381-1.08 2.505-2.408 2.505z"/>
    </g>
</svg>
