<svg xmlns="http://www.w3.org/2000/svg" width="89" height="116" viewBox="0 0 89 116">
    <g fill="#F15946" fill-rule="nonzero">
        <path d="M63.375 64.814a2.082 2.082 0 0 0-3.02 0L45.136 80.49V2.2C45.135.983 44.181 0 43 0c-1.181 0-2.136.983-2.136 2.2v78.29L25.646 64.813a2.082 2.082 0 0 0-3.02 0 2.242 2.242 0 0 0 0 3.109l18.864 19.43A2.132 2.132 0 0 0 43 88a2.132 2.132 0 0 0 1.51-.647l18.865-19.43a2.246 2.246 0 0 0 0-3.109z"/>
        <path d="M74.405 27h-15.68v.01a2.182 2.182 0 0 0-2.143 2.178c0 1.193.959 2.154 2.143 2.18v.009h15.68c5.631 0 10.22 4.585 10.22 10.22v59.806c0 5.635-4.589 10.22-10.22 10.22H14.6c-5.633 0-10.22-4.585-10.22-10.22V41.597c0-5.635 4.587-10.22 10.22-10.22h15.678v-.009a2.184 2.184 0 0 0 2.143-2.18c0-1.19-.957-2.149-2.143-2.177V27h-15.68C6.547 27 0 33.548 0 41.597v59.806C0 109.453 6.548 116 14.597 116h59.806C82.453 116 89 109.452 89 101.403V41.597C89.002 33.547 82.452 27 74.405 27z"/>
    </g>
</svg>
