<svg xmlns="http://www.w3.org/2000/svg" width="144" height="118" viewBox="0 0 144 118">
    <path fill="#F15946" fill-rule="nonzero" stroke="#F15946" d="M141.675 62.077c-4.262-5.681-8.525-5.681-18.946-.236l-10.42 6.42V12.836c0-3.788-3.079-7.102-7.105-7.102H83.889V3.367c0-1.42-.947-2.367-2.368-2.367H57.84c-1.421 0-2.369.947-2.369 2.367v2.368H34.156c-3.79 0-7.105 3.077-7.105 7.102v42.612c-3.703 1.49-7.059 3.418-9.473 4.96v-4.96H1V117h16.578v-7.102h30.787c4.737 0 9.71-.474 14.447-.71l30.787-4.735c1.184 0 2.368-.237 3.316-.474 2.842-.473 5.447-1.894 7.815-4.024l35.76-28.408c2.843-2.368 3.317-6.629 1.185-9.47zM60.207 5.735h18.946v18.701l-8.052-6.391c-.71-.71-1.895-.71-2.842 0l-8.052 6.391V5.735zm-28.42 7.102c0-1.184.948-2.368 2.369-2.368H55.47V24.91c0 1.657.947 3.314 2.605 4.025.455.227 1.129.452 1.81.47 1.03.08 2.027-.194 2.927-.944l6.868-5.445 6.394 5.445c.926.617 1.953.93 3.014.879a4.869 4.869 0 0 0 2.196-.405c1.658-.71 2.606-2.367 2.606-4.025V10.47h20.84c1.185 0 2.369.946 2.369 2.367V71.31l-4.974 3.078c-2.804 1.635-9.066 2.117-14.92 2.13 1.184-2.131.71-4.735-1.42-7.812-3.79-5.445-10.184-8.76-17.052-8.76h-9.237c-4.973 0-9.71-1.42-13.499-4.26-2.174-1.63-4.66-2.392-7.265-2.557a16.761 16.761 0 0 0-1.26-.048c-1.658 0-3.553.237-5.685.71V12.838zm-18.946 99.428H5.737V60.183h7.104V112.265zM137.65 68.232l-35.997 27.935-.237.237c-1.421 1.657-3.316 2.604-5.447 2.84-.947.237-1.658.237-2.605.237L62.1 104.216c-4.5.71-9.236.947-13.735.947H17.578V66.102c2.745-1.944 7.258-4.716 11.938-6.476.283-.004.567-.058.85-.153 5.684-1.894 9.947-1.894 12.79.237 4.499 3.314 10.183 5.208 16.34 5.208h9.237c5.447 0 10.42 2.367 13.262 6.865 1.16 1.391 1.41 2.78 1.197 3.281-.004.011-.008.024-.013.034-.22.365-.643.662-1.212.906l-.036.016c-.07.03-.146.057-.221.085-.067.024-.131.05-.202.073-.022.008-.046.015-.07.022a11.884 11.884 0 0 1-1.315.34 17.44 17.44 0 0 1-1.047.18l-.11.016c-.783.11-1.669.198-2.655.256H51.918c-7.342 0-11.842 3.55-11.842 9.469 0 1.42.947 2.367 2.368 2.367 1.421 0 2.369-.947 2.369-2.367 0-1.184 0-4.735 7.104-4.735H77.97c11.13.237 21.55 0 26.998-2.84l20.367-12.547c9.947-4.972 10.894-3.788 12.789-.947.474.71.474 2.13-.474 2.84z"/>
</svg>
