<svg xmlns="http://www.w3.org/2000/svg" width="120" height="116" viewBox="0 0 120 116">
    <g fill="#F15946" fill-rule="nonzero">
        <path d="M117.422 0h-88.74a2.58 2.58 0 0 0-2.578 2.584v51.368H2.578A2.58 2.58 0 0 0 0 56.536v43.796C0 108.97 7.011 116 15.63 116h88.74c8.618 0 15.63-7.029 15.63-15.668V2.584A2.58 2.58 0 0 0 117.422 0zM5.155 100.332V59.12h20.95v41.212c0 5.79-4.7 10.5-10.476 10.5-5.775 0-10.474-4.71-10.474-10.5zm109.69 0c0 5.79-4.7 10.5-10.476 10.5H27.221a15.63 15.63 0 0 0 4.039-10.5V5.168h83.584v95.164z"/>
        <path d="M68.632 30h33.736c1.454 0 2.632-1.119 2.632-2.5s-1.178-2.5-2.632-2.5H68.632C67.178 25 66 26.119 66 27.5s1.178 2.5 2.632 2.5zM68.632 59h33.736c1.454 0 2.632-1.119 2.632-2.5s-1.178-2.5-2.632-2.5H68.632C67.178 54 66 55.119 66 56.5s1.178 2.5 2.632 2.5zM68.632 87h33.736c1.454 0 2.632-1.119 2.632-2.5s-1.178-2.5-2.632-2.5H68.632C67.178 82 66 83.119 66 84.5c0 1.38 1.178 2.5 2.632 2.5zM46.423 32.218a2.614 2.614 0 0 0 1.87.782h.022a2.61 2.61 0 0 0 1.88-.813l14.132-15.01a2.443 2.443 0 0 0-.165-3.525 2.63 2.63 0 0 0-3.635.16L48.262 26.838l-3.818-3.92a2.63 2.63 0 0 0-3.638-.1 2.442 2.442 0 0 0-.104 3.526l5.721 5.874zM60.527 43.813L48.262 56.838l-3.819-3.92a2.629 2.629 0 0 0-3.637-.1 2.442 2.442 0 0 0-.104 3.527l5.721 5.873a2.614 2.614 0 0 0 1.87.782h.023a2.61 2.61 0 0 0 1.878-.813l14.134-15.01a2.443 2.443 0 0 0-.166-3.524 2.63 2.63 0 0 0-3.635.16zM60.527 72.813L48.262 85.838l-3.819-3.92a2.628 2.628 0 0 0-3.637-.1 2.442 2.442 0 0 0-.104 3.527l5.721 5.873a2.614 2.614 0 0 0 1.87.782h.023a2.61 2.61 0 0 0 1.878-.813l14.134-15.01a2.443 2.443 0 0 0-.166-3.525 2.63 2.63 0 0 0-3.635.16z"/>
    </g>
</svg>
