<svg xmlns="http://www.w3.org/2000/svg" width="132" height="116" viewBox="0 0 132 116">
    <g fill="#F15946" fill-rule="nonzero">
        <path d="M132 22.658c0-3.693-3.005-6.697-6.7-6.697H68.138v-2.917c2.649-.894 4.562-3.4 4.562-6.346C72.7 3.005 69.694 0 66 0c-3.694 0-6.7 3.005-6.7 6.698 0 2.946 1.913 5.452 4.562 6.346v2.917H6.7c-3.695 0-6.7 3.004-6.7 6.697 0 2.946 1.913 5.452 4.562 6.347v80.297c0 3.693 3.005 6.698 6.7 6.698h109.477c3.694 0 6.7-3.005 6.7-6.698V29.005c2.648-.895 4.561-3.4 4.561-6.347zM66 4.275a2.426 2.426 0 0 1 2.423 2.423A2.426 2.426 0 0 1 66 9.12a2.426 2.426 0 0 1-2.423-2.422A2.426 2.426 0 0 1 66 4.275zm54.739 107.45H11.26a2.426 2.426 0 0 1-2.423-2.423V29.356h114.324v79.946a2.426 2.426 0 0 1-2.423 2.423zM125.3 25.08H6.7a2.426 2.426 0 0 1-2.424-2.423A2.426 2.426 0 0 1 6.7 20.236h118.6a2.426 2.426 0 0 1 2.424 2.422 2.426 2.426 0 0 1-2.424 2.423z"/>
        <path d="M48.77 89.253l41.955-41.955v6.24a2.138 2.138 0 0 0 4.275 0v-11.4c0-1.18-.957-2.138-2.138-2.138h-11.4a2.138 2.138 0 0 0 0 4.275h6.24L45.747 86.23c-.025.024-.046.05-.069.076a6.654 6.654 0 0 0-2.98-.702A6.706 6.706 0 0 0 36 92.302 6.706 6.706 0 0 0 42.698 99a6.706 6.706 0 0 0 6.698-6.698c0-1.07-.254-2.082-.702-2.98.025-.023.052-.044.076-.069zm-6.072 5.472a2.425 2.425 0 0 1-2.423-2.423 2.425 2.425 0 0 1 2.423-2.423 2.425 2.425 0 0 1 2.423 2.423 2.425 2.425 0 0 1-2.423 2.423zM36.654 52.392a2.318 2.318 0 0 0 1.58.608c.572 0 1.144-.202 1.58-.608L43 49.434l3.186 2.958a2.318 2.318 0 0 0 1.58.608c.572 0 1.144-.202 1.58-.608a1.971 1.971 0 0 0 0-2.933L46.159 46.5l3.187-2.959a1.971 1.971 0 0 0 0-2.933c-.873-.81-2.287-.81-3.16 0L43 43.566l-3.186-2.958c-.873-.81-2.287-.81-3.16 0a1.971 1.971 0 0 0 0 2.933l3.187 2.959-3.187 2.959a1.971 1.971 0 0 0 0 2.933z"/>
        <path d="M59.654 52.392a2.318 2.318 0 0 0 1.58.608c.572 0 1.144-.202 1.58-.608L66 49.434l3.186 2.958a2.318 2.318 0 0 0 1.58.608c.572 0 1.144-.202 1.58-.608a1.971 1.971 0 0 0 0-2.933L69.159 46.5l3.187-2.959a1.971 1.971 0 0 0 0-2.933c-.873-.81-2.287-.81-3.16 0L66 43.566l-3.186-2.958c-.873-.81-2.287-.81-3.16 0a1.971 1.971 0 0 0 0 2.933l3.187 2.959-3.187 2.959a1.971 1.971 0 0 0 0 2.933zM36.654 76.392a2.318 2.318 0 0 0 1.58.608c.572 0 1.144-.202 1.58-.608L43 73.434l3.186 2.958a2.318 2.318 0 0 0 1.58.608c.572 0 1.144-.202 1.58-.608a1.971 1.971 0 0 0 0-2.933L46.159 70.5l3.187-2.959a1.971 1.971 0 0 0 0-2.933c-.873-.81-2.287-.81-3.16 0L43 67.566l-3.186-2.958c-.873-.81-2.287-.81-3.16 0a1.971 1.971 0 0 0 0 2.933l3.187 2.959-3.187 2.959a1.971 1.971 0 0 0 0 2.933zM95.346 86.608c-.873-.81-2.287-.81-3.16 0L89 89.566l-3.186-2.958c-.873-.81-2.287-.81-3.16 0a1.971 1.971 0 0 0 0 2.933l3.187 2.959-3.187 2.959a1.971 1.971 0 0 0 0 2.933 2.318 2.318 0 0 0 1.58.608c.572 0 1.144-.202 1.58-.608L89 95.434l3.186 2.958a2.318 2.318 0 0 0 1.58.608c.572 0 1.144-.202 1.58-.608a1.971 1.971 0 0 0 0-2.933L92.159 92.5l3.187-2.959a1.971 1.971 0 0 0 0-2.933zM72.346 86.608c-.873-.81-2.287-.81-3.16 0L66 89.566l-3.186-2.958c-.873-.81-2.287-.81-3.16 0a1.971 1.971 0 0 0 0 2.933l3.187 2.959-3.187 2.959a1.971 1.971 0 0 0 0 2.933 2.318 2.318 0 0 0 1.58.608c.572 0 1.144-.202 1.58-.608L66 95.434l3.186 2.958a2.318 2.318 0 0 0 1.58.608c.572 0 1.144-.202 1.58-.608a1.971 1.971 0 0 0 0-2.933L69.159 92.5l3.187-2.959a1.971 1.971 0 0 0 0-2.933zM95.346 64.608c-.873-.81-2.287-.81-3.16 0L89 67.566l-3.186-2.958c-.873-.81-2.287-.81-3.16 0a1.971 1.971 0 0 0 0 2.933l3.187 2.959-3.187 2.959a1.971 1.971 0 0 0 0 2.933 2.318 2.318 0 0 0 1.58.608c.572 0 1.144-.202 1.58-.608L89 73.434l3.186 2.958a2.318 2.318 0 0 0 1.58.608c.572 0 1.144-.202 1.58-.608a1.971 1.971 0 0 0 0-2.933L92.159 70.5l3.187-2.959a1.971 1.971 0 0 0 0-2.933z"/>
    </g>
</svg>
