<svg xmlns="http://www.w3.org/2000/svg" width="178" height="116" viewBox="0 0 178 116">
    <path fill="#F15946" fill-rule="nonzero" d="M177.735 72.232l-5.912-23.244c-.579-2.27-2.385-3.82-4.616-4.224l-13.039-7.843.101-21.306C154.27 7.005 147.283 0 138.694 0h-37.083C96.417 0 91.84 2.588 89.01 6.514 86.179 2.584 81.6 0 76.407 0H39.324c-8.589 0-15.575 7.005-15.575 15.615v21.36l-12.95 7.79c-2.234.404-4.04 1.953-4.619 4.223L.265 72.232a8.661 8.661 0 0 0 0 4.25l5.912 23.245c.668 2.62 2.976 4.384 5.545 4.384.1 0 .202-.002.303-.008h5.779V116h7.161l11.867-11.897h104.342L153.041 116h7.161v-11.9l5.622-.003c.107.006.217.009.326.009 2.7 0 5.008-1.761 5.673-4.379l5.912-23.244a8.661 8.661 0 0 0 0-4.25zM160.45 48.988l-4.753 18.676-3.4-4.266-3.643-4.571.964-3.397 3.474-12.216 7.755 4.664c-.163.348-.3.72-.397 1.11zM34.073 62.462h109.881l7.114 8.923H26.947l7.126-8.923zM101.61 5.949h37.083c5.316 0 9.642 4.336 9.642 9.666v22.632l-5.198 18.266h-51.16V15.615c0-.02-.005-.038-.005-.056.032-5.306 4.34-9.61 9.638-9.61zM29.68 15.615c0-5.33 4.325-9.666 9.642-9.666h37.083c5.295 0 9.603 4.307 9.635 9.61 0 .02-.006.039-.006.056v40.898H34.885L29.682 38.25V15.615h-.003zM24.915 43.21l4.458 15.615-7.063 8.846-4.753-18.682a6.05 6.05 0 0 0-.403-1.113l7.76-4.666zM11.93 98.258L6.017 75.013a2.654 2.654 0 0 1 0-1.311l5.791-23.245 5.912 23.245c.054.214.084.434.084.657V98.19l-5.874.068zm11.807 10.559v-4.714h4.705l-4.705 4.714zm19.028-10.663H23.737v-20.82h130.532v20.82H42.765zm111.504 10.663l-4.705-4.714h4.705v4.714zm17.717-33.804l-6.01 23.14h-5.774V74.36c0-.22.03-.44.08-.654l5.812-23.156h.003l5.892 23.156c.104.425.104.88-.003 1.308z"/>
</svg>
