<svg xmlns="http://www.w3.org/2000/svg" width="136" height="116" viewBox="0 0 136 116">
    <g fill="#F15946" fill-rule="nonzero">
        <path d="M134.476 35.127L69.311.327a2.793 2.793 0 0 0-2.623 0l-65.165 34.8C.366 35.745-.229 37.093.081 38.39c.313 1.297 1.448 2.209 2.754 2.209h2.833v72.5c0 1.604 1.267 2.901 2.833 2.901h17c1.566 0 2.833-1.297 2.833-2.9V46.399h79.332v66.7c0 1.604 1.267 2.9 2.833 2.9h17c1.566 0 2.834-1.296 2.834-2.9V40.6h2.833c1.306 0 2.44-.912 2.753-2.209.309-1.297-.286-2.645-1.443-3.263zm-9.81 2.572v72.5h-11.334V43.5c0-1.603-1.267-2.9-2.833-2.9H25.5c-1.566 0-2.833 1.297-2.833 2.9v66.7H11.334V37.7c0-.408-.083-.793-.23-1.144L68 6.17l56.895 30.385c-.147.351-.23.736-.23 1.144z"/>
        <path d="M99.167 75h-34c-1.566 0-2.834 1.31-2.834 2.929v2.928h-25.5c-1.566 0-2.833 1.31-2.833 2.929v29.285c0 1.62 1.267 2.929 2.833 2.929h62.334c1.566 0 2.833-1.31 2.833-2.929V77.93c0-1.62-1.267-2.929-2.833-2.929zm-36.834 35.142H39.667V86.714h8.5v5.857c0 1.619 1.267 2.929 2.833 2.929 1.566 0 2.834-1.31 2.834-2.929v-5.857h8.5v23.428zm34 0H68V80.857h11.333v8.786c0 1.618 1.268 2.928 2.834 2.928S85 91.261 85 89.643v-8.786h11.333v29.285z"/>
    </g>
</svg>
