<svg xmlns="http://www.w3.org/2000/svg" width="59" height="55" viewBox="0 0 59 55">
    <g fill="#F15946" fill-rule="nonzero">
        <path d="M53.81 11.124H41.57a2.974 2.974 0 0 0-2.934-2.472h-.883a1.11 1.11 0 0 1-1.11-1.106V5.414C36.642 2.429 34.201 0 31.201 0h-3.403c-3 0-5.441 2.429-5.441 5.414v2.132a1.11 1.11 0 0 1-1.111 1.106h-.883a2.975 2.975 0 0 0-2.933 2.472H5.189C2.328 11.124 0 13.44 0 16.287v33.55C0 52.683 2.328 55 5.19 55h48.62c2.862 0 5.19-2.316 5.19-5.164V16.287c0-2.847-2.328-5.163-5.19-5.163zm-34.557.487c0-.61.498-1.105 1.11-1.105h.884a2.97 2.97 0 0 0 2.974-2.96V5.414c0-1.963 1.605-3.56 3.578-3.56h3.403c1.972 0 3.577 1.597 3.577 3.56v2.132a2.97 2.97 0 0 0 2.974 2.96h.883a1.11 1.11 0 0 1 1.111 1.105v5.823a1.11 1.11 0 0 1-1.11 1.105H20.363a1.11 1.11 0 0 1-1.111-1.105V11.61zm37.884 38.225c0 1.828-1.49 3.31-3.326 3.31H5.189a3.318 3.318 0 0 1-3.326-3.31V16.287c0-1.828 1.49-3.31 3.326-3.31h12.2v3.09H5.9a.93.93 0 0 0-.932.927V49.13a.93.93 0 0 0 .932.927h31.45a.93.93 0 0 0 .932-.927.93.93 0 0 0-.931-.927H6.83v-30.28h10.6a2.974 2.974 0 0 0 2.933 2.471h18.272a2.974 2.974 0 0 0 2.934-2.472h10.599v30.281h-10.28a.93.93 0 0 0-.932.927.93.93 0 0 0 .932.927H53.1a.93.93 0 0 0 .932-.927V16.994a.93.93 0 0 0-.932-.927H41.61v-3.09h12.2a3.318 3.318 0 0 1 3.327 3.31v33.55z"/>
        <path d="M30 10c-1.654 0-3 1.346-3 3s1.346 3 3 3 3-1.346 3-3-1.346-3-3-3zm0 4.364A1.365 1.365 0 0 1 28.636 13c0-.752.612-1.364 1.364-1.364.752 0 1.364.612 1.364 1.364 0 .752-.612 1.364-1.364 1.364zM43.903 27.96l-1.225-2.452-.007-.013-.013-.025a.948.948 0 0 0-.05-.078l-.015-.022a.909.909 0 0 0-.166-.171l-.008-.007-.009-.006a.929.929 0 0 0-.099-.066v-.001a.912.912 0 0 0-.103-.05l-.031-.011a.91.91 0 0 0-.088-.028l-.022-.006a.94.94 0 0 0-.108-.019l-.031-.002a.958.958 0 0 0-.091-.003h-.026a.925.925 0 0 0-.112.013l-.023.005a.901.901 0 0 0-.091.023l-.03.01a.898.898 0 0 0-.109.045l-2.449 1.226a.92.92 0 0 0 .822 1.645l.653-.327c-1.202 4.033-3.29 7.02-6.221 8.893-4.33 2.764-9.375 2.346-11.136 2.086a4.6 4.6 0 0 0-4.523-3.813A4.6 4.6 0 0 0 14 39.403 4.6 4.6 0 0 0 18.592 44a4.6 4.6 0 0 0 4.465-3.526c.662.092 1.617.186 2.759.186 2.588 0 6.134-.484 9.405-2.566 3.24-2.063 5.556-5.28 6.905-9.581l.134.268a.918.918 0 1 0 1.643-.822zM18.592 42.161a2.76 2.76 0 0 1-2.755-2.759 2.76 2.76 0 0 1 2.755-2.758 2.76 2.76 0 0 1 2.755 2.758 2.76 2.76 0 0 1-2.755 2.759zM15.414 26l1.293-1.293a1 1 0 0 0-1.414-1.414L14 24.586l-1.293-1.293a1 1 0 0 0-1.414 1.414L12.586 26l-1.293 1.293a1 1 0 1 0 1.414 1.414L14 27.414l1.293 1.293a.997.997 0 0 0 1.414 0 1 1 0 0 0 0-1.414L15.414 26zM47.414 42l1.293-1.293a1 1 0 0 0-1.414-1.414L46 40.586l-1.293-1.293a1 1 0 0 0-1.414 1.414L44.586 42l-1.293 1.293a1 1 0 0 0 1.414 1.414L46 43.414l1.293 1.293a.997.997 0 0 0 1.414 0 1 1 0 0 0 0-1.414L47.414 42z"/>
        <path d="M32.414 29.5l1.293-1.077c.39-.326.39-.854 0-1.179a1.147 1.147 0 0 0-1.414 0L31 28.321l-1.293-1.077a1.147 1.147 0 0 0-1.414 0c-.39.326-.39.853 0 1.179l1.293 1.077-1.293 1.077c-.39.326-.39.853 0 1.179.195.163.451.244.707.244.256 0 .512-.081.707-.244L31 30.679l1.293 1.077c.195.163.451.244.707.244.256 0 .512-.081.707-.244.39-.326.39-.853 0-1.179L32.414 29.5z"/>
    </g>
</svg>
