<svg xmlns="http://www.w3.org/2000/svg" width="49" height="55" viewBox="0 0 49 55">
    <g fill="#F15946" fill-rule="nonzero">
        <path d="M48.988 11.723c0-2.15-1.319-3.603-3.537-3.877-.42-.057-.852-.103-1.272-.149-1.25-.149-2.428-.274-3.56-.515-4.425-.949-8.709-2.905-13.448-6.153C26.389.492 25.525 0 24.509 0c-1.004 0-1.868.492-2.65 1.018C15.521 5.284 9.812 7.457 3.905 7.823 1.35 7.983.006 9.4.006 11.929v4.552c-.011 4.197-.011 8.531.036 12.809.011 1.59.221 3.237.607 4.906.91 3.912 2.988 7.434 6.35 10.762 4.19 4.152 9.444 7.354 16.05 9.79.444.16.923.252 1.425.252.607 0 1.214-.126 1.751-.355.362-.16.736-.308 1.097-.457l.035-.011c1.6-.675 3.246-1.373 4.857-2.196 5.37-2.78 9.432-6.062 12.42-10.042 2.685-3.568 4.074-7.16 4.238-10.98.035-.731.058-1.509.07-2.39L49 21.501v-2.87c0-2.31 0-4.61-.012-6.908zm-2.801 9.641v.08l-.059 7.091c-.011.846-.035 1.59-.058 2.299-.14 3.26-1.354 6.359-3.7 9.47-2.732 3.637-6.491 6.656-11.476 9.24-1.505.778-3.105 1.453-4.657 2.105l-.035.011c-.374.16-.736.31-1.11.47-.186.08-.408.125-.63.125-.163 0-.315-.023-.443-.068-6.222-2.3-11.148-5.296-15.047-9.15-2.965-2.962-4.798-6.05-5.592-9.447a19.453 19.453 0 0 1-.537-4.323c-.047-4.255-.035-8.59-.035-12.775v-.023-4.529c0-.526.082-.915.245-1.075.152-.16.514-.263 1.04-.297 6.431-.412 12.583-2.722 19.354-7.297.525-.355.875-.526 1.062-.526.187 0 .537.183 1.062.537 5.055 3.454 9.654 5.547 14.452 6.577 1.26.274 2.51.411 3.84.56.42.046.83.092 1.25.149.817.103 1.085.389 1.085 1.155v6.896l-.011 2.745z"/>
        <path d="M26.415 26.584h-3.842c-1.56 0-2.832-1.289-2.832-2.868 0-1.578 1.273-2.867 2.832-2.867h6.766c.757 0 1.377-.627 1.377-1.393s-.62-1.393-1.377-1.393h-3.463v-2.67c0-.766-.62-1.393-1.376-1.393-.757 0-1.376.627-1.376 1.393v2.67h-.54c-3.073 0-5.584 2.53-5.584 5.653 0 3.112 2.5 5.654 5.585 5.654h3.842c1.56 0 2.832 1.288 2.832 2.867s-1.273 2.867-2.832 2.867h-6.893c-.756 0-1.376.627-1.376 1.394 0 .766.62 1.393 1.376 1.393h3.59v2.716c0 .766.62 1.393 1.376 1.393.757 0 1.376-.627 1.376-1.393v-2.716h.619c3.04-.035 5.505-2.566 5.505-5.654 0-3.123-2.5-5.653-5.585-5.653z"/>
    </g>
</svg>
