<svg xmlns="http://www.w3.org/2000/svg" width="42" height="55" viewBox="0 0 42 55">
    <g fill="#F15946" fill-rule="nonzero">
        <circle cx="21.5" cy="27.5" r="1.5"/>
        <path d="M40.765 7.5C41.448 7.5 42 6.94 42 6.25v-2.5C42 1.683 40.337 0 38.294 0H3.706C1.663 0 0 1.683 0 3.75v34.926c0 2.014.966 3.915 2.587 5.086L15.8 53.314A8.813 8.813 0 0 0 21 55a8.814 8.814 0 0 0 5.2-1.686l13.213-9.551A6.281 6.281 0 0 0 42 38.676V11.25c0-.69-.552-1.25-1.235-1.25h-4.941c-.684 0-1.236.56-1.236 1.25v26.226c0 .399-.19.778-.507 1.012l-11.574 8.515c-.873.646-2.136.645-3.014 0L7.922 38.488a1.255 1.255 0 0 1-.51-1.012V7.5h28.412c.683 0 1.235-.56 1.235-1.25S36.507 5 35.824 5H6.176c-.683 0-1.235.56-1.235 1.25v31.226c0 1.195.57 2.33 1.526 3.033l11.57 8.515A4.962 4.962 0 0 0 21 50a4.957 4.957 0 0 0 2.96-.975l11.573-8.516a3.775 3.775 0 0 0 1.526-3.033V12.5h2.47v26.176c0 1.209-.58 2.35-1.551 3.051L24.764 51.28c-2.21 1.596-5.318 1.597-7.528 0L4.022 41.727a3.77 3.77 0 0 1-1.551-3.05V3.75c0-.689.553-1.25 1.235-1.25h34.588c.682 0 1.235.561 1.235 1.25v2.5c0 .69.553 1.25 1.236 1.25z"/>
        <path d="M27.75 21.222h-5c-.691 0-1.25.573-1.25 1.278 0 .705.559 1.278 1.25 1.278h3.75v7.666h-10v-7.666h1.25c.691 0 1.25-.573 1.25-1.278V16.11c0-1.41 1.121-2.556 2.5-2.556s2.5 1.147 2.5 2.556v1.278c0 .705.559 1.278 1.25 1.278s1.25-.573 1.25-1.278V16.11c0-2.819-2.243-5.111-5-5.111-2.758 0-5 2.292-5 5.111v5.111h-1.25c-.691 0-1.25.573-1.25 1.278v10.222c0 .706.559 1.278 1.25 1.278h12.5c.691 0 1.25-.572 1.25-1.278V22.5c0-.705-.559-1.278-1.25-1.278z"/>
    </g>
</svg>
