<svg xmlns="http://www.w3.org/2000/svg" width="26" height="15" viewBox="0 0 26 15">
    <path fill="#FFF" fill-rule="nonzero" d="M25.982 1.263C25.981.566 25.384 0 24.65 0h-.001L1.33.03C.974.03.64.163.389.402c-.251.24-.39.557-.389.895l.018 12.44c0 .338.14.655.391.894.252.238.586.369.94.369h.003l23.318-.03c.734-.001 1.33-.57 1.33-1.267l-.018-12.44zM23.92 1L13.53 8 3.12 1.028 23.92 1zm-7.216 8.485l5.924 4.488L2.315 14l5.96-4.515a.628.628 0 0 0 .115-.896.663.663 0 0 0-.916-.113L1.056 13.34 1.04 2.031l11.07 7.474a.663.663 0 0 0 .744 0L23.904 2l.016 11.338-6.416-4.862a.663.663 0 0 0-.916.114.628.628 0 0 0 .116.895z"/>
</svg>
