<svg xmlns="http://www.w3.org/2000/svg" width="10" height="13" viewBox="0 0 10 13">
    <path fill="#F15946" fill-rule="nonzero" d="M8.75 4.333h-.625V3.095C8.125 1.362 6.75 0 5 0S1.875 1.362 1.875 3.095v1.238H1.25C.562 4.333 0 4.89 0 5.571v6.19C0 12.444.563 13 1.25 13h7.5c.688 0 1.25-.557 1.25-1.238v-6.19c0-.682-.563-1.239-1.25-1.239zM5 1.176c1.063 0 1.938.867 1.938 1.92v1.237H3.124V3.095h-.063c0-1.052.876-1.919 1.938-1.919zm3.75 10.586h-7.5v-6.19h7.5v6.19zM5 9.905c.688 0 1.25-.557 1.25-1.238 0-.681-.563-1.238-1.25-1.238-.688 0-1.25.557-1.25 1.238 0 .68.563 1.238 1.25 1.238z"/>
</svg>
