<svg xmlns="http://www.w3.org/2000/svg" width="76" height="40" viewBox="0 0 76 40">
    <g fill="#FFF" fill-rule="evenodd">
        <path d="M8.26 39.095l-.591-1.809a1.904 1.904 0 0 1-.08-.318.915.915 0 0 1-.03-.159h-.028c0 .053-.003.106-.008.159l-.015.155a1.752 1.752 0 0 1-.021.163l-.467 2.642H6l.896-5.066h.984l.911 2.859.03.119c.01.041.017.08.021.12l.015.122h.029a.939.939 0 0 0 .066-.123l.061-.119a2.2 2.2 0 0 1 .07-.12l1.931-2.858h.984l-.896 5.066h-1.02l.466-2.642c.01-.053.022-.107.036-.163a2.56 2.56 0 0 0 .036-.155l.044-.159h-.029a3.18 3.18 0 0 1-.08.159 3.483 3.483 0 0 1-.084.155c-.032.057-.067.11-.106.163l-1.231 1.81h-.875zm7.37-1.7c.068-.381.1-.698.094-.948a1.784 1.784 0 0 0-.094-.6.61.61 0 0 0-.237-.316.615.615 0 0 0-.324-.09.804.804 0 0 0-.358.09c-.121.061-.238.166-.35.315-.111.15-.215.35-.31.601a5.43 5.43 0 0 0-.243.947 4.758 4.758 0 0 0-.091.949c.007.251.04.451.098.6.059.15.137.255.237.315.1.06.207.09.324.09.117 0 .236-.03.357-.09a.99.99 0 0 0 .346-.315c.11-.149.212-.349.306-.6.095-.251.177-.567.245-.948zm1.02 0c-.083.463-.2.859-.35 1.186-.15.329-.328.598-.532.808-.204.21-.433.364-.689.463-.261.1-.54.15-.82.148a1.87 1.87 0 0 1-.768-.148 1.18 1.18 0 0 1-.529-.463c-.131-.21-.213-.48-.248-.808-.034-.327-.01-.723.073-1.186.083-.463.2-.859.35-1.187.151-.328.33-.597.536-.807.206-.21.437-.364.692-.463.262-.1.54-.15.82-.148.292 0 .547.05.765.148.219.099.394.254.525.463.132.21.214.48.248.807.034.328.01.724-.073 1.187zm2.524.796c.005.058.007.118.007.181v.174c0 .062-.002.125-.007.187h.029a3.93 3.93 0 0 1 .051-.18c.02-.053.04-.112.062-.177.02-.064.046-.126.076-.185l1.502-3.329h1.02l-2.354 5.066h-1.166l-.56-5.066h1.019l.32 3.33v-.001zm3.726-3.329h1.02l-.896 5.066h-1.02l.896-5.066zm4.382 2.822c.03.106.056.212.08.319a.913.913 0 0 1 .03.152h.029c0-.049.002-.1.007-.152l.015-.152a1.84 1.84 0 0 1 .022-.167l.502-2.822h1.021l-.896 5.066h-1.094l-.78-2.823a9.517 9.517 0 0 1-.102-.47h-.029c0 .048-.002.099-.007.152a5.2 5.2 0 0 1-.044.318l-.495 2.823h-1.02l.896-5.066h1.093l.772 2.822zm2.495-.289c.083-.463.2-.859.35-1.187.15-.328.33-.597.54-.807.209-.21.443-.364.703-.463.269-.1.554-.15.842-.148.208 0 .393.02.553.061.16.041.294.088.401.142.127.057.233.123.321.195l-.43.578h-.073a.877.877 0 0 0-.204-.159 1.62 1.62 0 0 0-.255-.112 1.068 1.068 0 0 0-.357-.054c-.146 0-.29.031-.423.09-.136.061-.262.165-.38.315-.116.15-.222.35-.32.601-.096.251-.18.567-.248.947a4.589 4.589 0 0 0-.087.949c.01.251.049.451.116.6.069.15.165.255.289.315.124.06.268.09.433.09a.898.898 0 0 0 .256-.035.653.653 0 0 0 .116-.037l.27-1.52h-.765l.116-.65h1.494l.24.288-.393 2.208a2.005 2.005 0 0 1-.408.203 2.837 2.837 0 0 1-.478.137c-.187.039-.4.058-.637.058-.32 0-.6-.05-.835-.148a1.225 1.225 0 0 1-.561-.463c-.138-.21-.225-.48-.259-.808-.034-.327-.01-.723.073-1.186zm7 0c.084-.463.2-.859.35-1.187.151-.328.332-.597.54-.807.21-.21.443-.364.704-.463.269-.1.554-.15.841-.148.21 0 .394.02.554.061.16.041.294.088.401.142.126.057.233.123.321.195l-.43.578h-.073a.877.877 0 0 0-.204-.159 1.62 1.62 0 0 0-.255-.112 1.068 1.068 0 0 0-.357-.054c-.146 0-.29.031-.423.09-.136.061-.262.165-.38.315-.116.15-.222.35-.32.601-.097.251-.18.567-.248.947a4.589 4.589 0 0 0-.087.949c.01.251.048.451.116.6.069.15.165.255.289.315.123.06.268.09.433.09.136 0 .261-.016.375-.05.114-.034.213-.07.296-.108.097-.049.184-.104.262-.167h.073l.218.579c-.123.08-.255.149-.393.203-.324.13-.67.197-1.02.195-.32 0-.6-.05-.835-.148a1.225 1.225 0 0 1-.561-.463c-.139-.21-.225-.48-.259-.808-.034-.327-.01-.723.073-1.186zm6.708 0c.069-.381.1-.698.095-.948a1.798 1.798 0 0 0-.095-.6.61.61 0 0 0-.236-.316.615.615 0 0 0-.325-.09.802.802 0 0 0-.357.09c-.121.061-.238.166-.35.315-.112.15-.215.35-.31.601-.094.251-.175.567-.244.947a4.845 4.845 0 0 0-.091.949c.007.251.04.451.099.6.058.15.136.255.236.315.1.06.208.09.325.09.117 0 .235-.03.357-.09a.99.99 0 0 0 .346-.315c.11-.149.211-.349.306-.6s.176-.567.244-.948zm1.02 0a4.96 4.96 0 0 1-.349 1.186c-.15.329-.328.598-.532.808-.204.21-.434.364-.689.463-.261.1-.54.15-.82.148a1.87 1.87 0 0 1-.769-.148 1.18 1.18 0 0 1-.528-.463c-.131-.21-.214-.48-.248-.808-.034-.327-.01-.723.073-1.186.082-.463.2-.859.35-1.187.15-.328.329-.597.536-.807.205-.21.437-.364.692-.463.261-.1.54-.15.82-.148.29 0 .547.05.765.148.219.099.393.254.525.463.13.21.214.48.247.807.035.328.01.724-.072 1.187zm3.056 1.7l-.59-1.809a1.904 1.904 0 0 1-.08-.318.915.915 0 0 1-.03-.159h-.028c0 .053-.003.106-.008.159l-.014.155a1.752 1.752 0 0 1-.022.163l-.467 2.642h-1.02l.897-5.066h.983l.911 2.859.03.119c.01.041.017.08.022.12l.014.122h.029a.936.936 0 0 0 .066-.123 4.068 4.068 0 0 1 .13-.238l1.932-2.859h.984l-.896 5.066h-1.02l.466-2.642c.01-.053.022-.107.036-.163.015-.055.027-.107.037-.155l.043-.159h-.028a2.769 2.769 0 0 1-.08.159 3.483 3.483 0 0 1-.085.155c-.032.057-.067.11-.105.163l-1.232 1.81h-.875zm6.205-1.483c.33 0 .584-.08.761-.239.177-.159.3-.43.369-.81.068-.382.04-.652-.08-.811-.122-.159-.348-.238-.678-.238H53.7l-.373 2.098h.438zm-.554.651l-.291 1.665H51.9l.897-5.066h1.457c.695 0 1.171.142 1.429.427.257.285.335.71.233 1.273-.097.565-.325.99-.685 1.274-.36.285-.887.427-1.582.427h-.437zm5.417.507h-1.457l-.532 1.158h-1.02l2.39-5.066h1.166l.597 5.066h-1.02l-.124-1.158zm-1.158-.651h1.093l-.168-1.52a1.426 1.426 0 0 1-.015-.355c0-.062.005-.125.015-.188h-.029l-.059.188a6.331 6.331 0 0 1-.13.355l-.707 1.52zm6.05-.435c.03.106.056.212.08.319a.856.856 0 0 1 .03.152h.029c0-.049.003-.1.007-.152.006-.044.01-.094.015-.152a1.51 1.51 0 0 1 .022-.167l.503-2.822h1.02l-.896 5.066h-1.093l-.78-2.823a3.193 3.193 0 0 1-.04-.163l-.034-.155a.925.925 0 0 1-.028-.152h-.03c0 .048-.002.099-.007.152a5.2 5.2 0 0 1-.044.318l-.495 2.823h-1.02l.896-5.066h1.093l.773 2.822zm5.68-2.822h1.057l-2.172 3.401-.291 1.665h-1.02l.29-1.665-.961-3.4h1.057l.532 2.134c.01.038.016.076.018.112.002.036.006.071.01.105a.823.823 0 0 1 .008.108h.029a.633.633 0 0 1 .044-.108c.014-.034.03-.069.048-.105.017-.036.037-.074.061-.112l1.29-2.135zm-62.4-4.15c2.68 0 5.362-.068 8.038 0 1.728.056 2.514-.595 2.686-2.326.191-2.057.54-4.096 1.04-6.1.178-.682 1.084-1.178 1.657-1.763.52.688 1.467 1.375 1.467 2.068 0 1.788-.41 3.577-.676 5.365-.292 1.964.4 2.93 2.535 2.76 1.442-.113 2.894 0 4.758 0-1.307-4.48 1.718-8.843-1.015-12.534 1.099-2.068 2.452-3.805 3.014-5.784 1.348-4.76-.817-7.547-5.815-7.681-4.997-.135-9.89-.052-14.831-.063a8.386 8.386 0 0 1-2.603-.284A15.326 15.326 0 0 1 18.941.044c6.835.367 12.077 3.571 15.242 9.666.901 1.737 1.958 2.285 3.832 2.274 10.235-.065 20.473-.065 30.714 0 6.871.03 7.97 1.318 6.934 8.012a69.012 69.012 0 0 1-1.374 7.092c-.958 3.619-2.93 5.17-6.695 5.37-2.941.145-5.898.073-8.85.073-16.044 0-32.093 0-48.138-.031-1.338 0-2.675-.517-4.013-.76l.208-1.029zm60.772-16.784c-3.903-.109-3.899-.109-4.518 3.618-.437 2.626-.911 5.24-1.349 7.867-.952 5.686-.926 5.686 4.951 5.257 2.603-.191 4.894-1.09 5.57-3.794a60.635 60.635 0 0 0 1.531-9.113c.214-2.326-1.207-3.67-3.587-3.84-.869-.047-1.739.01-2.602.01l.004-.006zM29.837 30.37c2.082.445 3.915 1.034 4.748-1.654.291-.557.848-.93 1.478-.987a1.773 1.773 0 0 1 1.177 1.256c.228 2.17 1.863 1.907 3.092 1.597.619-.155 1.364-1.421 1.348-2.166a168.068 168.068 0 0 0-.687-12.11c-.078-.854-.906-2.233-1.536-2.326-1.562-.218-3.472-.823-4.331 1.55-1.562 4.379-3.326 8.684-4.971 13.036a10 10 0 0 0-.323 1.81l.005-.006zm19.86-16.54c-4.816 0-4.222-.393-4.961 4.135-.552 3.395-1.073 6.797-1.734 10.167-.385 1.97.271 2.626 2.26 2.585 1.988-.042 2.082-1.339 2.342-2.73.297-1.674.026-3.494 2.79-3.752 3.54-.331 5.602-3.303 5.33-6.751-.212-2.662-1.711-3.572-6.032-3.629l.005-.026zm12.15 1.105c-.422-.294-.953-.971-1.562-1.033-1.202-.135-2.686-.517-2.998 1.457-.703 4.404-1.526 8.788-2.145 13.202-.088.64.75 2.026.99 1.99 1.118-.17 2.987-.517 3.123-1.162 1.04-4.576 1.718-9.254 2.592-14.428v-.025z"/>
        <path d="M14.566 11.561c3.286 1.702-12.596 0-12.596 0s9.31-1.701 12.596 0zm-1.947 7.617s-10.733.715-11.788-.715c-1.055-1.43 9.19-.16 11.81 0 2.619.159-.022.715-.022.715zm8.702-4.474c-.982-.332 1.07-5.48 1.391-5.37.682.23 1.785.2 2.332 1.322.34 1.353.002 2.608-1.396 3.297-1.398.69-1.956.876-2.327.75zm-7.615.799c3.984 1.493-12.78 0-12.78 0s8.796-1.493 12.78 0zM3.36 26.372c-1.054-1.346 7.049-.092 7.983 0 .933.091.288.814.288.814-.682.287-1.406.898-2.03.804-1.995-.287-5.187-.272-6.241-1.618zM14.277 7.699c4.027 1.57-10.113 0-10.113 0s6.088-1.572 10.114 0zm-2.56 15.525c-3.4.18-7.266.304-9.842 0-2.576-.305-2.447-1.02.074-1.154 2.52-.133 8.366.46 9.815.632 1.448.171 3.351.342-.048.522zm25.33-2.369c.164-.522 1.046-2.948 1.367-2.838.682.229.725 3.35.893 3.992.258 1.021-1.524 1.469-2.354 1.35-.83-.117-.066-1.808.095-2.504zm11.871.06c.061-.738.488-3.4.625-3.993.083-.264.39-1.361 1.312-1.361.92 0 1.572 1.334 1.654 1.652 0 2.09-.635 3.604-3.59 3.703zm19.683-3.611c2.572-.849 1.244 7.698-1.135 8.837-2.379 1.138.145-8.51 1.135-8.837z"/>
    </g>
</svg>
