<svg xmlns="http://www.w3.org/2000/svg" width="21" height="22" viewBox="0 0 21 22">
    <g fill="#F15946" fill-rule="nonzero">
        <path d="M17.735 4.51h-.568V3.25A3.263 3.263 0 0 0 13.902 0H7.047c-1.8 0-3.265 1.46-3.265 3.251v1.258h-.517C1.465 4.51 0 5.97 0 7.76v5.244a3.263 3.263 0 0 0 3.265 3.25h.513v4.123A1.63 1.63 0 0 0 5.408 22h10.124c.898 0 1.63-.73 1.63-1.623v-4.122h.573c1.8 0 3.265-1.46 3.265-3.251V7.76a3.263 3.263 0 0 0-3.265-3.25zM5.015 3.25c0-1.113.91-2.02 2.028-2.02h6.85c1.117 0 2.029.907 2.029 2.02v1.258H5.014V3.251zm10.911 17.135a.396.396 0 0 1-.394.392H5.408a.396.396 0 0 1-.394-.392v-6.798h10.912v6.798zm3.838-7.378c0 1.113-.912 2.02-2.029 2.02h-.568v-1.44h.815a.614.614 0 0 0 .619-.616.614.614 0 0 0-.619-.616H2.872a.614.614 0 0 0-.62.616c0 .342.276.616.62.616h.91v1.44h-.517a2.028 2.028 0 0 1-2.029-2.02V7.765c0-1.113.912-2.02 2.029-2.02h14.47c1.117 0 2.029.907 2.029 2.02v5.243z"/>
        <path d="M5.61 17h7.78c.339 0 .61-.222.61-.5s-.271-.5-.61-.5H5.61c-.339 0-.61.222-.61.5s.276.5.61.5zM13.394 17H5.61c-.34 0-.611.222-.611.5s.271.5.61.5h7.78c.339 0 .61-.222.61-.5s-.271-.5-.606-.5zM18.256 7h-1.512c-.413 0-.744.222-.744.5s.33.5.744.5h1.512c.413 0 .744-.222.744-.5s-.33-.5-.744-.5z"/>
    </g>
</svg>
