<svg xmlns="http://www.w3.org/2000/svg" width="67" height="84" viewBox="0 0 67 84">
    <g fill="#40C9A2" fill-rule="nonzero">
        <path d="M52.872 32c-4.165 7.138-11.196 12.661-19.37 12.661-8.173 0-15.21-5.523-19.373-12.658C5.789 35.909 0 44.275 0 53.999v21.666C0 80.27 3.781 84 8.439 84H58.56c4.675 0 8.44-3.731 8.44-8.335V54C67 44.274 61.222 35.906 52.872 32zm-4.83 20.538l-15.56 20.067a3.457 3.457 0 0 1-2.728 1.327 3.44 3.44 0 0 1-2.195-.788l-9.272-7.648a3.352 3.352 0 0 1-.427-4.77c1.21-1.43 3.377-1.624 4.83-.424l6.52 5.381 13.386-17.26a3.461 3.461 0 0 1 4.807-.629 3.352 3.352 0 0 1 .638 4.744z"/>
        <path d="M34.003 39C43.945 39 52 27.456 52 17.69 52 7.92 43.945 0 34.003 0 24.055 0 16 7.92 16 17.69 16 27.456 24.055 39 34.003 39z"/>
    </g>
</svg>
